# File created by Blade
# Date/Time:  Wed Sep 24 20:26:02 2014
# Frame Rate: 120.000 fps
#------------------------------------------------------
:FULLY-SPECIFIED
:DEGREES
699
root -6.340632 33.663597 0.931225 183.459890 -60.686492 -78.910681
Spine -35.872248 15.767104 -1.389089
Head -79.078828 19.481334 1.994005
LeftShoulder -11.308689 26.205262 13.823267
LeftArm -2.401423 40.266299 -77.572630
LeftForeArm 17.887818 -0.000000 13.072098
LeftHand -29.427931 -0.000000 -7.411861
LeftHandThumb1 -26.253704 0.000000 33.147579
RightShoulder -18.318606 8.054798 -21.297114
RightArm -32.705351 -27.132674 99.867678
RightForeArm -33.597944 0.000000 12.155938
RightHand -5.408993 -0.000000 23.300669
RightHandThumb1 -24.326973 -0.000000 -32.862282
LeftUpLeg -99.541275 22.508214 4.319479
LeftLeg -6.762216 -0.000000 0.000000
LeftFoot -6.333730 23.210042 -1.423121
LeftToeBase 5.012362 -0.000000 -0.000000
RightUpLeg 14.080824 -5.135196 -18.760249
RightLeg 23.439612 -0.000000 -0.000000
RightFoot 42.444665 1.663011 2.393208
RightToeBase 18.162502 -0.000000 -0.000000
700
root -6.338522 33.666272 0.948698 183.697382 -60.667047 -79.006631
Spine -35.958600 15.894295 -1.445898
Head -79.045406 19.460161 2.026955
LeftShoulder -11.333551 26.249140 13.826655
LeftArm -2.340794 40.193807 -77.467902
LeftForeArm 17.918452 -0.000000 13.104611
LeftHand -29.589178 -0.000000 -7.309886
LeftHandThumb1 -26.253704 0.000000 33.147579
RightShoulder -18.318154 8.076194 -21.275553
RightArm -32.697531 -27.348376 99.960162
RightForeArm -34.126043 -0.000000 12.085890
RightHand -5.167813 -0.000000 23.285767
RightHandThumb1 -24.326973 -0.000000 -32.862282
LeftUpLeg -99.689006 22.512755 4.272952
LeftLeg -6.730084 -0.000000 0.000000
LeftFoot -6.337463 23.405315 -1.297358
LeftToeBase 5.507893 -0.000000 -0.000000
RightUpLeg 13.989888 -5.211472 -18.883054
RightLeg 23.439411 -0.000000 -0.000000
RightFoot 42.381752 1.762816 2.229384
RightToeBase 18.262284 -0.000000 -0.000000
701
root -6.332184 33.670011 0.964755 183.648890 -60.583078 -78.872775
Spine -35.907788 16.161296 -1.290580
Head -79.036755 19.313433 1.911089
LeftShoulder -11.331804 26.266440 13.770835
LeftArm -2.251907 40.062935 -77.399017
LeftForeArm 18.065800 0.000000 13.114100
LeftHand -29.577142 -0.000000 -7.266113
LeftHandThumb1 -26.253704 0.000000 33.147579
RightShoulder -18.226982 8.189790 -21.324839
RightArm -32.791040 -27.420752 100.015440
RightForeArm -34.385434 -0.000000 12.191103
RightHand -5.129938 -0.000000 23.785044
RightHandThumb1 -24.326973 -0.000000 -32.862282
LeftUpLeg -99.802797 22.590685 4.302887
LeftLeg -6.672357 -0.000000 0.000000
LeftFoot -6.383950 23.387840 -1.565398
LeftToeBase 5.529615 -0.000000 -0.000000
RightUpLeg 13.939034 -5.137795 -18.873037
RightLeg 23.433561 -0.000000 -0.000000
RightFoot 42.420810 1.701779 2.155409
RightToeBase 18.140805 -0.000000 -0.000000
702
root -6.327993 33.670674 0.977920 183.772469 -60.587798 -78.927464
Spine -35.881688 16.295682 -1.300114
Head -79.033920 19.176915 1.911305
LeftShoulder -11.323072 26.290529 13.774036
LeftArm -2.159130 39.991046 -77.296354
LeftForeArm 18.117749 -0.000000 13.160597
LeftHand -29.583539 -0.000000 -7.030298
LeftHandThumb1 -26.253704 0.000000 33.147579
RightShoulder -18.251591 8.255790 -21.305330
RightArm -32.852782 -27.700943 100.180339
RightForeArm -34.236871 -0.000000 12.131018
RightHand -5.072938 -0.000000 23.677348
RightHandThumb1 -24.326973 -0.000000 -32.862282
LeftUpLeg -99.932192 22.568184 4.166336
LeftLeg -6.645021 -0.000000 0.000000
LeftFoot -6.434448 23.248362 -1.978830
LeftToeBase 5.380534 -0.000000 -0.000000
RightUpLeg 13.929781 -5.093336 -18.922917
RightLeg 23.421863 -0.000000 -0.000000
RightFoot 42.375077 1.609652 2.116932
RightToeBase 18.207698 -0.000000 -0.000000
703
root -6.323938 33.671023 0.990071 183.876502 -60.607839 -78.979032
Spine -35.834653 16.363626 -1.256558
Head -79.014417 19.100570 1.875107
LeftShoulder -11.337691 26.253282 13.751695
LeftArm -2.188349 39.959570 -77.272398
LeftForeArm 18.109135 -0.000000 13.215660
LeftHand -29.855433 -0.000000 -6.588543
LeftHandThumb1 -26.253704 0.000000 33.147579
RightShoulder -18.218381 8.322313 -21.302625
RightArm -32.838134 -27.893169 100.236136
RightForeArm -34.735535 -0.000000 12.095964
RightHand -4.794050 -0.000000 23.977703
RightHandThumb1 -24.326973 -0.000000 -32.862282
LeftUpLeg -100.052815 22.527148 3.986754
LeftLeg -6.635000 -0.000000 0.000000
LeftFoot -6.487737 23.069026 -2.393602
LeftToeBase 5.207593 -0.000000 -0.000000
RightUpLeg 13.938280 -5.049141 -18.965268
RightLeg 23.426746 -0.000000 -0.000000
RightFoot 42.308718 1.562327 2.085819
RightToeBase 18.294100 -0.000000 -0.000000
704
root -6.322232 33.670897 1.006058 184.116537 -60.685935 -79.167671
Spine -35.810603 16.381579 -1.325133
Head -79.053215 19.029147 1.804198
LeftShoulder -11.308037 26.164829 13.774926
LeftArm -2.264612 39.977843 -77.246449
LeftForeArm 18.141960 -0.000000 13.322514
LeftHand -29.678638 -0.000000 -6.533558
LeftHandThumb1 -26.253704 0.000000 33.147579
RightShoulder -18.240794 8.396160 -21.295661
RightArm -32.883077 -28.027212 100.301289
RightForeArm -34.517271 -0.000000 12.151141
RightHand -4.974155 -0.000000 24.130433
RightHandThumb1 -24.326973 -0.000000 -32.862282
LeftUpLeg -100.170264 22.409347 3.744703
LeftLeg -6.652335 -0.000000 0.000000
LeftFoot -6.434328 22.871998 -2.481319
LeftToeBase 5.081369 -0.000000 -0.000000
RightUpLeg 13.952270 -5.075203 -19.075188
RightLeg 23.406865 -0.000000 -0.000000
RightFoot 42.274463 1.534052 2.021280
RightToeBase 18.266186 -0.000000 -0.000000
705
root -6.321163 33.673238 1.018395 184.290887 -60.714933 -79.249707
Spine -35.844920 16.454771 -1.349523
Head -79.055715 18.965087 1.713188
LeftShoulder -11.274666 26.120126 13.791881
LeftArm -2.279314 40.088704 -77.196349
LeftForeArm 18.215993 -0.000000 13.392575
LeftHand -29.786527 -0.000000 -6.484076
LeftHandThumb1 -26.253704 0.000000 33.147579
RightShoulder -18.277532 8.401695 -21.312758
RightArm -32.863774 -28.092995 100.339288
RightForeArm -34.316717 -0.000000 12.133191
RightHand -5.077423 -0.000000 24.084959
RightHandThumb1 -24.326973 -0.000000 -32.862282
LeftUpLeg -100.312426 22.359884 3.576173
LeftLeg -6.659834 -0.000000 0.000000
LeftFoot -6.396916 22.685572 -2.537240
LeftToeBase 5.006661 -0.000000 -0.000000
RightUpLeg 13.906666 -5.052603 -19.107332
RightLeg 23.412696 -0.000000 -0.000000
RightFoot 42.256648 1.450110 1.975663
RightToeBase 18.284090 -0.000000 -0.000000
706
root -6.317338 33.668299 1.030856 184.523286 -60.817879 -79.448526
Spine -35.842054 16.428705 -1.430991
Head -79.074542 18.960679 1.658732
LeftShoulder -11.232215 26.114542 13.843733
LeftArm -2.240053 40.142562 -77.104734
LeftForeArm 18.296038 -0.000000 13.478905
LeftHand -29.600629 0.000000 -6.799266
LeftHandThumb1 -26.253704 0.000000 33.147579
RightShoulder -18.329603 8.377452 -21.313653
RightArm -32.774580 -27.981010 100.213068
RightForeArm -34.211472 -0.000000 12.176970
RightHand -5.151541 -0.000000 23.842707
RightHandThumb1 -24.326973 -0.000000 -32.862282
LeftUpLeg -100.294065 22.272304 3.600163
LeftLeg -6.729520 -0.000000 0.000000
LeftFoot -6.368783 22.739617 -2.623126
LeftToeBase 4.933542 -0.000000 -0.000000
RightUpLeg 13.945481 -5.086759 -19.208779
RightLeg 23.439944 -0.000000 -0.000000
RightFoot 42.202776 1.359335 2.042553
RightToeBase 18.239743 -0.000000 -0.000000
707
root -6.312865 33.664595 1.041095 184.696863 -60.907741 -79.569756
Spine -35.842668 16.383228 -1.447191
Head -79.092769 18.995913 1.621197
LeftShoulder -11.276771 26.016088 13.884655
LeftArm -2.259754 40.286674 -77.093644
LeftForeArm 18.299179 -0.000000 13.456377
LeftHand -29.692668 -0.000000 -6.901668
LeftHandThumb1 -26.253704 0.000000 33.147579
RightShoulder -18.354853 8.367943 -21.340056
RightArm -32.687126 -27.801502 100.058511
RightForeArm -34.183630 -0.000000 12.216315
RightHand -5.173514 -0.000000 23.775092
RightHandThumb1 -24.326973 -0.000000 -32.862282
LeftUpLeg -100.343011 22.189666 3.611959
LeftLeg -6.727226 -0.000000 0.000000
LeftFoot -6.360683 22.781788 -2.674717
LeftToeBase 4.876666 -0.000000 -0.000000
RightUpLeg 13.959913 -5.096482 -19.253935
RightLeg 23.492198 -0.000000 -0.000000
RightFoot 42.203024 1.334665 2.055215
RightToeBase 18.179864 -0.000000 -0.000000
708
root -6.309296 33.660347 1.053447 184.844151 -61.009090 -79.690529
Spine -35.810175 16.334657 -1.445040
Head -79.159107 19.001120 1.580964
LeftShoulder -11.234050 25.981567 13.908948
LeftArm -2.290220 40.343272 -77.079157
LeftForeArm 18.186483 -0.000000 13.504036
LeftHand -29.651778 -0.000000 -6.985400
LeftHandThumb1 -26.253704 0.000000 33.147579
RightShoulder -18.374051 8.386323 -21.345482
RightArm -32.625064 -27.592433 99.864007
RightForeArm -34.185205 -0.000000 12.267301
RightHand -5.241147 0.000000 23.664772
RightHandThumb1 -24.326973 -0.000000 -32.862282
LeftUpLeg -100.357424 22.080836 3.647215
LeftLeg -6.725934 -0.000000 0.000000
LeftFoot -6.346246 22.880382 -2.676910
LeftToeBase 4.851245 -0.000000 -0.000000
RightUpLeg 13.998148 -5.116570 -19.301464
RightLeg 23.538791 -0.000000 -0.000000
RightFoot 42.246009 1.363090 2.018632
RightToeBase 18.239157 -0.000000 -0.000000
